<svg xmlns="http://www.w3.org/2000/svg" viewBox="0 0 448 512" stroke="black" fill="#aeb8fe"
    stroke-width="20px" width="100px" height="100px">
    <defs>
        <linearGradient id="Gradient1">
            <stop class="stop1" offset="0%" />
            <stop class="stop1" offset="50%" />
            <stop class="stop3" offset="50%" />
            <stop class="stop3" offset="100%" />
        </linearGradient>
        <linearGradient id="Gradient2" x1="0" x2="0" y1="0" y2="1">
            <stop offset="0%" stop-color="red" />
            <stop offset="50%" stop-color="red" stop-opacity="0" />
            <stop offset="50%" stop-color="blue" stop-opacity="0" />
            <stop offset="100%" stop-color="blue" />
        </linearGradient>
        <style>
      <![CDATA[
              #rect1 { fill: url(#Gradient1); }
              .stop1 { stop-color: red; }
              .stop3 { stop-color: blue; }
            ]]>
    </style>
    </defs>
    <path id="rect1"
        d="M0 160v96C0 379.7 100.3 480 224 480s224-100.3 224-224V160H320v96c0 53-43 96-96 96s-96-43-96-96V160H0zm0-32H128V64c0-17.7-14.3-32-32-32H32C14.3 32 0 46.3 0 64v64zm320 0H448V64c0-17.7-14.3-32-32-32H352c-17.7 0-32 14.3-32 32v64z" />
</svg>