<svg xmlns="http://www.w3.org/2000/svg" viewBox="-10 0 535 512" stroke="#03045e" stroke-width="20px" fill="#0077b6" width="100px" height="100px"><!--! Font Awesome Pro 6.2.1 by @fontawesome - https://fontawesome.com License - https://fontawesome.com/license (Commercial License) Copyright 2022 Fonticons, Inc. --><path d="M52.5 440.6c-9.5 7.9-22.8 9.7-34.1 4.4S0 428.4 0 416V96C0 83.6 7.2 72.3 18.4 67s24.5-3.6 34.1 4.4L224 214.3V256v41.7L52.5 440.6zM256 352V256 128 96c0-12.4 7.2-23.7 18.4-29s24.5-3.6 34.1 4.4l192 160c7.3 6.1 11.5 15.1 11.5 24.6s-4.2 18.5-11.5 24.6l-192 160c-9.5 7.9-22.8 9.7-34.1 4.4s-18.4-16.6-18.4-29V352z"/></svg>